:SAMPLES-PER-SECOND 30
:FULLY-SPECIFIED
:DEGREES
34
root  81.1139 39.6716 -4.3558 175.206 -80.5502 -177.497
RightUpLeg  -12.1383 -9.68684 -3.0304
RightLeg  19.8706 -2.11096 -1.06972
RightFoot  -8.52392 -0.180415 5.03324
RightToes  0.000482159 0.542163 -0.142577
Spine  11.2028 -1.22915 0.315337
Spine1  8.90302 -1.4718 -0.139173
HEad  3.34289 8.25566 -5.48721
LeftShoulder1  7.84392 -10.772 -47.9488
LeftArm  1.38717 -2.19753 -31.9874
LeftForeArm  33.3623 -16.1428 -5.49051
LeftHand  -0.25398 0.0180481 5.50724
RightShoulder  5.50565 8.56289 39.5159
RightArm  -14.9195 -19.3479 40.8244
RightForeArm  16.3885 8.56974 4.57741
RightHand  -2.01922 6.54936 -19.8412
LeftUpLeg  2.6074 8.48131 3.04665
LeftLeg  12.1821 15.8212 -1.67599
LeftFoot  -15.3848 -0.019301 -3.15724
LeftToes  1.06247e-005 4.65854e-005 -8.18502e-006
35
root  80.5699 39.6789 -4.49873 175.11 -79.3722 -176.786
RightUpLeg  -11.8143 -10.6511 -1.86725
RightLeg  17.068 -0.851327 -0.463578
RightFoot  -6.85273 -0.162506 3.04324
RightToes  0.000482159 0.542163 -0.142577
Spine  10.8458 -1.13964 0.870897
Spine1  9.51673 -1.34998 0.0190201
HEad  2.98626 9.2951 -6.42567
LeftShoulder1  8.07077 -11.1857 -47.9468
LeftArm  7.81159 -1.38327 -34.7954
LeftForeArm  33.0502 -23.0627 -3.50709
LeftHand  -0.25398 0.0180481 5.50724
RightShoulder  5.70955 8.7126 40.5661
RightArm  -12.4211 -19.3981 41.2228
RightForeArm  20.2024 8.77194 4.98129
RightHand  -1.75826 5.91469 -18.3115
LeftUpLeg  3.48574 8.39553 3.40537
LeftLeg  11.1171 16.6551 -2.07767
LeftFoot  -15.3061 -0.0220826 -3.28912
LeftToes  1.06247e-005 4.65854e-005 -8.18502e-006
36
root  79.9791 39.6979 -4.64798 174.766 -78.0765 -176.27
RightUpLeg  -11.1943 -9.87905 -1.1794
RightLeg  16.1996 -0.911651 -0.341588
RightFoot  -5.18491 -0.072637 0.652864
RightToes  0.000482159 0.542163 -0.142577
Spine  11.5656 -1.15718 1.44552
Spine1  9.3677 -1.39686 0.447652
HEad  2.70347 10.5757 -7.49912
LeftShoulder1  8.1219 -11.2629 -47.9997
LeftArm  5.50674 -0.181914 -36.4824
LeftForeArm  37.666 -28.7847 -4.14073
LeftHand  -0.25398 0.0180481 5.50724
RightShoulder  5.818 8.8489 40.9071
RightArm  -9.63731 -19.2047 40.7491
RightForeArm  20.8016 9.72591 5.53888
RightHand  -1.73465 5.66913 -18.442
LeftUpLeg  4.93456 8.35538 3.6825
LeftLeg  10.0316 17.8763 -2.21267
LeftFoot  -14.9651 -0.0133741 -3.25759
LeftToes  1.06247e-005 4.65854e-005 -8.18502e-006
37
root  79.3291 39.6793 -4.7913 173.613 -76.8857 -175.272
RightUpLeg  -10.239 -8.88586 -0.888934
RightLeg  16.5956 -0.959112 -0.351354
RightFoot  -5.02155 -0.0114894 -0.415386
RightToes  0.000482159 0.542163 -0.142577
Spine  12.6327 -1.37545 2.53122
Spine1  9.12945 -1.49367 0.51491
HEad  2.53135 11.8655 -8.44582
LeftShoulder1  8.15955 -11.326 -48.0176
LeftArm  3.46351 0.964159 -37.4873
LeftForeArm  39.8499 -33.182 -5.08468
LeftHand  -0.25398 0.0180481 5.50724
RightShoulder  5.82922 8.92089 40.7347
RightArm  -7.22127 -18.3046 39.9288
RightForeArm  18.7744 10.4667 6.03796
RightHand  -1.801 5.50456 -19.3972
LeftUpLeg  6.25597 9.06151 3.92223
LeftLeg  10.1682 18.6548 -1.42231
LeftFoot  -15.0929 -0.00841494 -3.02412
LeftToes  1.06247e-005 4.65854e-005 -8.18502e-006
38
root  78.6517 39.5929 -4.94294 170.993 -76.4609 -172.669
RightUpLeg  -9.3024 -9.66683 -0.539447
RightLeg  17.2892 0.093034 0.0368401
RightFoot  -6.14888 -0.0286357 -0.283403
RightToes  0.000482159 0.542163 -0.142577
Spine  13.3863 -1.92246 4.1056
Spine1  8.9739 -1.84734 0.540839
HEad  2.62324 13.2226 -9.25099
LeftShoulder1  8.17275 -11.4003 -47.8543
LeftArm  2.42893 1.87103 -38.06
LeftForeArm  40.0274 -36.0584 -5.79012
LeftHand  -0.25398 0.0180481 5.50724
RightShoulder  5.72805 8.86401 40.1655
RightArm  -6.11938 -16.6203 39.1319
RightForeArm  16.7644 10.5231 6.32737
RightHand  -1.75955 5.09832 -19.6576
LeftUpLeg  6.33218 12.3446 4.61019
LeftLeg  12.5906 15.5517 0.683857
LeftFoot  -15.9197 -0.0681712 -4.01654
LeftToes  1.06247e-005 4.65854e-005 -8.18502e-006
39
root  78.0036 39.4675 -5.13675 167.146 -76.8844 -168.454
RightUpLeg  -8.82271 -11.5032 0.140531
RightLeg  18.1463 1.07731 0.54215
RightFoot  -7.45203 -0.0360675 -0.444929
RightToes  0.000482159 0.542163 -0.142577
Spine  13.8281 -2.53293 5.70526
Spine1  8.62775 -2.32422 0.957101
HEad  3.00332 14.1699 -9.71402
LeftShoulder1  8.05287 -11.3127 -47.4235
LeftArm  2.06861 2.44242 -38.3046
LeftForeArm  39.5585 -37.5981 -6.22179
LeftHand  -0.25398 0.0180481 5.50724
RightShoulder  5.61253 8.74111 39.7129
RightArm  -6.06638 -14.5937 38.051
RightForeArm  14.7099 10.545 6.44403
RightHand  -1.65194 4.6224 -19.3369
LeftUpLeg  4.33622 16.2899 5.61925
LeftLeg  17.7704 10.2467 3.61615
LeftFoot  -16.2177 -0.197717 -7.01834
LeftToes  1.06247e-005 4.65854e-005 -8.18502e-006
40
root  77.4042 39.3562 -5.37231 163.473 -77.6194 -164.267
RightUpLeg  -8.60459 -12.5627 0.895497
RightLeg  19.1142 0.887141 0.623487
RightFoot  -8.57844 -0.0322018 -1.07131
RightToes  0.000482159 0.542163 -0.142577
Spine  14.2425 -2.85528 7.01826
Spine1  8.21353 -2.51178 1.44056
HEad  3.37616 14.0442 -9.58826
LeftShoulder1  7.78636 -11.015 -46.7788
LeftArm  1.55292 2.6041 -38.1227
LeftForeArm  38.5957 -37.8633 -6.35004
LeftHand  -0.25398 0.0180481 5.50724
RightShoulder  5.60062 8.70579 39.7454
RightArm  -6.04522 -12.4453 36.5223
RightForeArm  11.2755 11.2581 6.5047
RightHand  -1.66767 4.5287 -19.6817
LeftUpLeg  0.132883 14.1198 6.14485
LeftLeg  26.2528 11.1895 6.38461
LeftFoot  -14.1852 -0.153837 -9.68897
LeftToes  1.06247e-005 4.65854e-005 -8.18502e-006
41
root  76.8046 39.2931 -5.61952 161.874 -78.2681 -162.304
RightUpLeg  -8.07401 -12.7651 1.15287
RightLeg  19.7198 0.28219 0.426629
RightFoot  -9.80766 -0.0494673 -1.20892
RightToes  0.000482159 0.542163 -0.142577
Spine  14.4961 -2.83088 7.94962
Spine1  8.30005 -2.27104 1.33553
HEad  3.4049 13.0891 -9.13033
LeftShoulder1  7.49955 -10.6589 -46.1715
LeftArm  0.346244 2.60394 -37.5373
LeftForeArm  37.6058 -37.3035 -6.25626
LeftHand  -0.25398 0.0180481 5.50724
RightShoulder  5.63897 8.78496 39.762
RightArm  -5.6527 -10.0579 35.2559
RightForeArm  7.51737 12.6667 6.4402
RightHand  -1.80557 4.78741 -20.7393
LeftUpLeg  -5.14868 12.4539 6.2989
LeftLeg  36.1623 11.8193 9.46662
LeftFoot  -9.37632 0.196614 -9.10095
LeftToes  1.06247e-005 4.65854e-005 -8.18502e-006
42
root  76.1605 39.2265 -5.83331 160.958 -78.919 -161.111
RightUpLeg  -7.3511 -13.1793 1.03687
RightLeg  20.2148 -0.0141637 0.405285
RightFoot  -11.2318 -0.075358 -0.92401
RightToes  0.000482159 0.542163 -0.142577
Spine  14.318 -2.71203 9.1319
Spine1  8.97511 -1.80325 0.752973
HEad  3.24604 12.0633 -8.81973
LeftShoulder1  7.34001 -10.45 -45.8545
LeftArm  -1.53173 2.94281 -36.5963
LeftForeArm  36.7118 -36.4035 -6.0684
LeftHand  -0.25398 0.0180481 5.50724
RightShoulder  5.57158 8.82991 39.0814
RightArm  -4.88209 -7.72648 34.9198
RightForeArm  4.74552 14.8673 6.04115
RightHand  -1.8834 4.88095 -21.4141
LeftUpLeg  -10.659 11.3944 6.04899
LeftLeg  44.8207 9.7572 10.5542
LeftFoot  -4.70458 0.376008 -5.94267
LeftToes  1.06247e-005 4.65854e-005 -8.18502e-006
43
root  75.4525 39.193 -6.02593 160.513 -79.874 -160.387
RightUpLeg  -6.43695 -13.7863 0.554829
RightLeg  20.4895 -0.495613 0.522177
RightFoot  -12.3556 -0.0922005 -0.950972
RightToes  0.000482159 0.542163 -0.142577
Spine  13.8966 -2.50932 10.3057
Spine1  9.60389 -1.24756 0.0488687
HEad  3.26861 10.9491 -8.69491
LeftShoulder1  7.32267 -10.4346 -45.7942
LeftArm  -3.61764 3.81311 -35.319
LeftForeArm  35.4104 -35.1814 -5.82604
LeftHand  -0.25398 0.0180481 5.50724
RightShoulder  5.38803 8.74343 37.9507
RightArm  -3.69629 -6.14455 35.0933
RightForeArm  1.74317 18.5135 5.31436
RightHand  -1.86229 4.68698 -21.5683
LeftUpLeg  -15.4987 10.3378 5.35054
LeftLeg  49.9702 6.21846 8.33086
LeftFoot  -3.15508 0.291981 -3.74963
LeftToes  1.06247e-005 4.65854e-005 -8.18502e-006
44
root  74.6783 39.275 -6.23493 162.63 -81.2189 -162.23
RightUpLeg  -4.84775 -13.7043 -0.491371
RightLeg  19.6573 -1.69834 0.571795
RightFoot  -12.8865 -0.0998765 -0.953117
RightToes  0.000482159 0.542163 -0.142577
Spine  13.5718 -2.10271 10.703
Spine1  9.72524 -0.589325 -0.819431
HEad  3.37443 9.38877 -8.34465
LeftShoulder1  7.32257 -10.4609 -45.7046
LeftArm  -5.55446 4.96886 -33.8546
LeftForeArm  33.5582 -33.4417 -5.49391
LeftHand  -0.25398 0.0180481 5.50724
RightShoulder  5.22916 8.57902 37.261
RightArm  -3.60316 -5.4771 34.7957
RightForeArm  -1.1157 23.7661 5.13038
RightHand  -1.88207 4.58614 -21.9945
LeftUpLeg  -19.1883 9.65752 4.11246
LeftLeg  50.8604 3.97748 5.70681
LeftFoot  -4.254 0.287155 -4.27407
LeftToes  1.06247e-005 4.65854e-005 -8.18502e-006
45
root  73.8545 39.4263 -6.44822 168.26 -82.7682 -167.573
RightUpLeg  -2.61938 -13.0393 -1.94181
RightLeg  17.6976 -3.37135 0.687609
RightFoot  -13.1315 -0.0945546 -0.366175
RightToes  0.000482159 0.542163 -0.142577
Spine  13.3011 -1.6062 10.4038
Spine1  9.63761 0.0837888 -1.91803
HEad  3.22279 7.98856 -7.76974
LeftShoulder1  7.24503 -10.3895 -45.4433
LeftArm  -7.34863 6.18026 -32.4664
LeftForeArm  31.8961 -31.2766 -5.064
LeftHand  -0.25398 0.0180481 5.50724
RightShoulder  5.16206 8.43353 37.2266
RightArm  -5.9305 -5.20923 33.8582
RightForeArm  -1.10364 29.8291 6.55023
RightHand  -1.94084 4.58075 -22.6698
LeftUpLeg  -21.8444 9.96181 2.39999
LeftLeg  47.8892 4.08258 5.22466
LeftFoot  -5.85194 0.299414 -5.47152
LeftToes  1.06247e-005 4.65854e-005 -8.18502e-006
46
root  72.9881 39.5664 -6.62818 176.944 -84.4615 -176.139
RightUpLeg  0.00273148 -12.5217 -3.56578
RightLeg  15.4718 -5.37988 1.02696
RightFoot  -13.2521 -0.0875581 0.132685
RightToes  0.000482159 0.542163 -0.142577
Spine  13.2713 -1.20873 9.86122
Spine1  9.41059 0.602608 -2.84404
HEad  3.35541 7.25534 -7.79931
LeftShoulder1  7.17553 -10.3301 -45.1916
LeftArm  -8.92517 7.55022 -31.1877
LeftForeArm  30.9006 -28.9465 -4.58116
LeftHand  -0.25398 0.0180481 5.50724
RightShoulder  5.11706 8.3292 37.2268
RightArm  -7.63324 -5.15565 33.023
RightForeArm  -0.142167 36.0732 8.19114
RightHand  -1.8873 4.2516 -22.7775
LeftUpLeg  -23.4445 11.1111 0.226189
LeftLeg  41.9805 5.28197 5.46678
LeftFoot  -6.68795 0.233814 -4.76818
LeftToes  1.06247e-005 4.65854e-005 -8.18502e-006
47
root  72.0793 39.6482 -6.77191 -172.285 -86.3533 173.308
RightUpLeg  2.53641 -11.8326 -4.67665
RightLeg  13.4254 -8.13134 1.45774
RightFoot  -13.283 -0.0889457 0.0711413
RightToes  0.000482159 0.542163 -0.142577
Spine  13.259 -0.897858 9.65974
Spine1  8.82328 0.991337 -3.45053
HEad  3.59218 5.58341 -7.56809
LeftShoulder1  7.27157 -10.5254 -45.1586
LeftArm  -9.84623 9.19915 -29.7432
LeftForeArm  29.7509 -26.5808 -4.11834
LeftHand  -0.25398 0.0180481 5.50724
RightShoulder  5.05998 8.27245 36.9596
RightArm  -8.98982 -5.5768 32.4079
RightForeArm  0.962198 41.9964 10.0279
RightHand  -1.76527 3.75212 -22.4719
LeftUpLeg  -24.4389 12.5257 -2.00981
LeftLeg  34.3047 5.35627 4.31041
LeftFoot  -6.65382 0.194183 -3.76548
LeftToes  1.06247e-005 4.65854e-005 -8.18502e-006
48
root  71.1075 39.6185 -6.89106 -149.218 -88.1769 150.51
RightUpLeg  5.10482 -10.6944 -5.10532
RightLeg  11.5027 -11.0026 1.88882
RightFoot  -13.7199 -0.081568 0.501333
RightToes  0.000482159 0.542163 -0.142577
Spine  13.1559 -0.584156 9.82782
Spine1  8.12387 1.43563 -4.03943
HEad  3.7166 3.32488 -7.05682
LeftShoulder1  7.50262 -10.9473 -45.2406
LeftArm  -9.82356 10.8554 -28.0443
LeftForeArm  27.4111 -24.2555 -3.75874
LeftHand  -0.25398 0.0180481 5.50724
RightShoulder  5.08815 8.37036 36.8455
RightArm  -9.8661 -6.1967 31.5737
RightForeArm  0.583688 47.025 12.0038
RightHand  -1.79875 3.7794 -22.8062
LeftUpLeg  -24.9924 14.3102 -4.17784
LeftLeg  26.6194 4.42836 2.73653
LeftFoot  -6.15967 0.235304 -4.37987
LeftToes  1.06247e-005 4.65854e-005 -8.18502e-006
